<?xml version="1.0" encoding="UTF-8"?>
<svg id="vlpa" version="1.1" viewBox="120 0 740.6 200.8" xml:space="preserve" xmlns="http://www.w3.org/2000/svg"
	xmlns:cc="http://creativecommons.org/ns#" xmlns:dc="http://purl.org/dc/elements/1.1/"
	xmlns:rdf="http://www.w3.org/1999/02/22-rdf-syntax-ns#">
	<title>OpenCL logo</title>
	<desc>A heterogenous computing API from Khronos Group</desc>
	<metadata>
		<rdf:RDF>
			<cc:Work rdf:about="">
				<dc:format>image/svg+xml</dc:format>
				<dc:type rdf:resource="http://purl.org/dc/dcmitype/StillImage" />
				<dc:title />
			</cc:Work>
		</rdf:RDF>
	</metadata>
	<style type="text/css">
		.st0 {
			fill: #ABD038;
		}

		.st1 {
			fill: #EE332D;
		}

		.st2 {
			fill: #F2BA1A;
		}

		.st3 {
			fill: #3DAE2B;
		}

		.st4 {
			fill: #010101;
		}
	</style>
	<path class="st0"
		d="m421.6 60.1c14.6-22.8 31.8-49.8 37.4-58.6-63.9 4.8-123 21.4-173 46.7 7.7 14.4 17.7 32.5 25.4 46.5 26.5-9.9 55.3-16.7 85.7-19.6 10-1 19-6.5 24.5-15z" />
	<path class="st1"
		d="m654.9 152.3c13.9 6.6 27.4 8.6 46.3 8.6 34.6 0 99.9 0.1 135.8 0.2-31.6-52.5-85.8-96.2-153.7-124.8-24.1 16.1-93.1 62.3-104.1 69.6 43.6 21.3 62 39.9 75.7 46.4z" />
	<path class="st2"
		d="m472.2 0.7c-1.9 5.6-18.9 56.6-24.3 73.1 27.4 1.2 53.8 5.4 78.5 12.3 14.7 4.1 30.5 2.6 44.1-4.4l99.6-50.8c-51.5-19.7-110.1-30.9-172.4-30.9-8.6 0-17.1 0.3-25.5 0.7z" />
	<path class="st3"
		d="m149.3 174.7 32.3 0.1c8.7 0 17-3.6 22.9-10 17.5-19.1 39-35.9 63.7-49.8 8.8-4.9 13.7-14.8 12.1-24.7-2.4-15.6-5-31.7-5.7-36-56.3 30.5-100.1 72.1-125.3 120.4z" />
</svg>
